<svg width="23" height="22" viewBox="0 0 23 22" fill="none" xmlns="http://www.w3.org/2000/svg">
<path d="M16.2208 0C15.7229 0.0276569 15.2251 0.0829707 14.755 0.248912C14.0082 0.525481 13.2891 0.940335 12.6807 1.54879C12.5056 1.65977 12.3577 1.80868 12.248 1.98452C12.1382 2.16036 12.0694 2.35862 12.0466 2.56464C12.0238 2.77067 12.0476 2.97918 12.1163 3.17476C12.1849 3.37034 12.2967 3.54798 12.4433 3.69455C12.5898 3.84112 12.7675 3.95287 12.963 4.02152C13.1586 4.09018 13.3671 4.11399 13.5732 4.09119C13.7792 4.06839 13.9774 3.99957 14.1533 3.88982C14.3291 3.78006 14.478 3.63218 14.589 3.45711C14.8932 3.15289 15.2528 2.98695 15.64 2.84866C16.608 2.51678 17.7972 2.65506 18.5716 3.45711C19.6502 4.53573 19.6502 6.33343 18.5716 7.43971L14.4231 11.5882C13.2062 12.8051 12.2105 12.9158 11.4914 12.8881C10.7724 12.8605 10.3575 12.5286 10.3575 12.5286C10.1977 12.4378 10.0216 12.3793 9.83919 12.3566C9.6568 12.3339 9.47172 12.3473 9.29452 12.3961C9.11731 12.4449 8.95145 12.5281 8.80641 12.641C8.66137 12.7539 8.53998 12.8943 8.44918 13.0541C8.35838 13.2139 8.29995 13.39 8.27722 13.5724C8.25449 13.7548 8.2679 13.9398 8.3167 14.1171C8.36549 14.2943 8.44871 14.4601 8.56161 14.6052C8.6745 14.7502 8.81486 14.8716 8.97466 14.9624C8.97466 14.9624 9.915 15.5708 11.2978 15.6538C12.6807 15.7368 14.6167 15.2113 16.3037 13.4966L20.4523 9.34803C22.6095 7.1908 22.6095 3.70603 20.4523 1.57644C19.6779 0.80205 18.7652 0.331883 17.7696 0.110628C17.2717 0 16.7186 0 16.2208 0.0276569V0ZM10.6894 6.38874C9.30655 6.33343 7.39822 6.8036 5.76646 8.46301L1.61793 12.6115C-0.53931 14.7688 -0.53931 18.2536 1.61793 20.3831C3.16672 21.9319 5.37927 22.3744 7.31525 21.683C8.06199 21.4064 8.78107 20.9916 9.38952 20.3831C9.56459 20.2722 9.71247 20.1232 9.82222 19.9474C9.93198 19.7716 10.0008 19.5733 10.0236 19.3673C10.0464 19.1613 10.0226 18.9527 9.95393 18.7572C9.88527 18.5616 9.77353 18.3839 9.62696 18.2374C9.48039 18.0908 9.30274 17.9791 9.10716 17.9104C8.91158 17.8417 8.70307 17.8179 8.49705 17.8407C8.29103 17.8635 8.09276 17.9324 7.91692 18.0421C7.74109 18.1519 7.59217 18.2997 7.48119 18.4748C7.17697 18.779 6.81743 18.945 6.43023 19.0833C5.46224 19.4151 4.27299 19.2769 3.4986 18.4748C2.41998 17.3962 2.41998 15.5985 3.4986 14.4922L7.64713 10.3437C8.75341 9.23741 9.7214 9.09912 10.4958 9.12678C11.2702 9.15444 11.7957 9.37569 11.7957 9.37569C11.9577 9.49722 12.1445 9.58167 12.3427 9.62307C12.541 9.66447 12.746 9.6618 12.9431 9.61527C13.1402 9.56873 13.3247 9.47946 13.4835 9.35376C13.6424 9.22806 13.7716 9.06901 13.8622 8.88784C13.9528 8.70668 14.0025 8.50782 14.0078 8.30534C14.013 8.10286 13.9737 7.9017 13.8927 7.71607C13.8116 7.53045 13.6908 7.36489 13.5387 7.23111C13.3866 7.09733 13.207 6.9986 13.0126 6.94188C13.0126 6.94188 12.0722 6.38874 10.6894 6.33343V6.38874Z" fill="#3F3F3F"/>
</svg>
